<?xml version="1.0" encoding="UTF-8" standalone="no"?>
<!-- Created with Inkscape (http://www.inkscape.org/) -->

<svg
   xmlns:dc="http://purl.org/dc/elements/1.1/"
   xmlns:cc="http://creativecommons.org/ns#"
   xmlns:rdf="http://www.w3.org/1999/02/22-rdf-syntax-ns#"
   xmlns:svg="http://www.w3.org/2000/svg"
   xmlns="http://www.w3.org/2000/svg"
   xmlns:xlink="http://www.w3.org/1999/xlink"
   xmlns:sodipodi="http://sodipodi.sourceforge.net/DTD/sodipodi-0.dtd"
   xmlns:inkscape="http://www.inkscape.org/namespaces/inkscape"
   id="svg2"
   version="1.1"
   inkscape:version="0.91 r13725"
   width="123.68314"
   height="25.95961"
   viewBox="0 0 123.68315 25.95961"
   sodipodi:docname="export_to_ical2.svg"
   inkscape:export-filename="/home/gustavo/Desktop/calender/export_to_ical2.png"
   inkscape:export-xdpi="86.38044"
   inkscape:export-ydpi="86.38044">
  <metadata
     id="metadata8">
    <rdf:RDF>
      <cc:Work
         rdf:about="">
        <dc:format>image/svg+xml</dc:format>
        <dc:type
           rdf:resource="http://purl.org/dc/dcmitype/StillImage" />
        <dc:title />
      </cc:Work>
    </rdf:RDF>
  </metadata>
  <defs
     id="defs6">
    <linearGradient
       inkscape:collect="always"
       id="linearGradient5215">
      <stop
         style="stop-color:#00000b;stop-opacity:1;"
         offset="0"
         id="stop5217" />
      <stop
         style="stop-color:#00000b;stop-opacity:0;"
         offset="1"
         id="stop5219" />
    </linearGradient>
    <filter
       inkscape:collect="always"
       style="color-interpolation-filters:sRGB"
       id="filter4170"
       x="-0.0065837423"
       width="1.0131675"
       y="-0.067671038"
       height="1.1353421">
      <feGaussianBlur
         inkscape:collect="always"
         stdDeviation="0.21195214"
         id="feGaussianBlur4172" />
    </filter>
    <radialGradient
       inkscape:collect="always"
       xlink:href="#linearGradient5215"
       id="radialGradient5255"
       gradientUnits="userSpaceOnUse"
       gradientTransform="matrix(1,0,0,1.1459921,0,-1.7701972)"
       cx="17.341393"
       cy="12.125295"
       fx="17.341393"
       fy="12.125295"
       r="10.134162" />
    <radialGradient
       inkscape:collect="always"
       xlink:href="#linearGradient5215"
       id="radialGradient5257"
       gradientUnits="userSpaceOnUse"
       gradientTransform="matrix(1,0,0,1.1459921,0,-1.7701972)"
       cx="17.341393"
       cy="12.125295"
       fx="17.341393"
       fy="12.125295"
       r="10.134162" />
  </defs>
  <sodipodi:namedview
     pagecolor="#ffffff"
     bordercolor="#666666"
     borderopacity="1"
     objecttolerance="10"
     gridtolerance="10"
     guidetolerance="10"
     inkscape:pageopacity="0"
     inkscape:pageshadow="2"
     inkscape:window-width="1301"
     inkscape:window-height="744"
     id="namedview4"
     showgrid="false"
     fit-margin-top="0"
     fit-margin-left="0"
     fit-margin-right="0"
     fit-margin-bottom="0"
     inkscape:zoom="5.6568543"
     inkscape:cx="58.983369"
     inkscape:cy="14.248105"
     inkscape:window-x="65"
     inkscape:window-y="24"
     inkscape:window-maximized="1"
     inkscape:current-layer="svg2"
     inkscape:object-nodes="true" />
  <g
     id="g5618">
    <rect
       ry="6.6155987"
       y="9.29004"
       x="8.1065474"
       height="13.231197"
       width="115.0766"
       id="rect3360"
       style="fill:#ffffff;fill-opacity:1;stroke:#659898;stroke-width:1;stroke-linecap:round;stroke-linejoin:round;stroke-miterlimit:2;stroke-dasharray:none;stroke-opacity:1;opacity:1" />
    <text
       xml:space="preserve"
       style="font-style:normal;font-weight:normal;font-size:7.76734304px;line-height:125%;font-family:sans-serif;letter-spacing:0px;word-spacing:0px;fill:#333333;fill-opacity:1;stroke:none;stroke-width:1px;stroke-linecap:butt;stroke-linejoin:miter;stroke-opacity:1;filter:url(#filter4170)"
       x="34.01865"
       y="18.96562"
       id="text4166"
       sodipodi:linespacing="125%"><tspan
         sodipodi:role="line"
         id="tspan4168"
         x="34.01865"
         y="18.96562">Exportar para iCal</tspan><tspan
         id="tspan4167"
         sodipodi:role="line"
         x="34.01865"
         y="28.674799" /></text>
    <text
       sodipodi:linespacing="125%"
       id="text3362"
       y="18.464884"
       x="33.518978"
       style="font-style:normal;font-weight:normal;font-size:7.76734304px;line-height:125%;font-family:sans-serif;letter-spacing:0px;word-spacing:0px;fill:#659898;fill-opacity:1;stroke:none;stroke-width:1px;stroke-linecap:butt;stroke-linejoin:miter;stroke-opacity:1"
       xml:space="preserve"><tspan
         y="18.464884"
         x="33.518978"
         id="tspan3364"
         sodipodi:role="line">Exportar para iCal</tspan><tspan
         id="tspan4165"
         y="28.174063"
         x="33.518978"
         sodipodi:role="line" /></text>
    <g
       transform="translate(22.937502,0.09348057)"
       id="g5287">
      <rect
         style="opacity:1;fill:#ffffff;fill-opacity:1;stroke:none;stroke-width:0.30000001;stroke-miterlimit:4;stroke-dasharray:none;stroke-dashoffset:0;stroke-opacity:0.28301888"
         id="rect5265"
         width="17.809633"
         height="13.07722"
         x="-14.779815"
         y="8.8735075"
         ry="0" />
      <g
         style="stroke:url(#radialGradient5257)"
         id="g4378"
         transform="translate(-42.338261,-13.73833)">
        <path
           style="fill:#659898;stroke:url(#radialGradient5255)"
           d="m 28.198939,36.599407 c -0.111445,-0.03596 -0.26017,-0.09542 -0.330501,-0.132117 -0.191444,-0.09991 -0.541595,-0.449988 -0.663923,-0.663796 -0.234885,-0.410536 -0.221336,0.03651 -0.221336,-7.302802 l 0,-6.678935 9.633973,0 9.633973,0 0,6.678935 c 0,7.339315 0.01355,6.892266 -0.221337,7.302802 -0.127784,0.223345 -0.477674,0.567838 -0.682916,0.672384 -0.403692,0.205633 0.172621,0.193053 -8.745617,0.190898 -7.749159,-0.0019 -8.210823,-0.0056 -8.402316,-0.06737 z m 3.601578,-1.103312 c 0.0365,-0.02317 0.04436,-0.418131 0.03684,-1.850707 l -0.0096,-1.821248 -1.821248,-0.0096 c -1.432576,-0.0076 -1.827535,3.33e-4 -1.850707,0.03684 -0.05082,0.08004 -0.03769,3.579745 0.01363,3.63105 0.0513,0.0513 3.55101,0.06443 3.631051,0.01363 z m 4.420943,0 c 0.0365,-0.02317 0.04436,-0.418131 0.03684,-1.850707 l -0.0096,-1.821248 -1.821248,-0.0096 c -1.432576,-0.0076 -1.827535,3.33e-4 -1.850707,0.03684 -0.05082,0.08004 -0.03768,3.579745 0.01363,3.63105 0.0513,0.0513 3.55101,0.06443 3.631051,0.01363 z m 4.422434,-0.01363 c 0.0513,-0.0513 0.06443,-3.551009 0.01363,-3.63105 -0.02317,-0.0365 -0.418131,-0.04436 -1.850706,-0.03684 l -1.821248,0.0096 -0.0096,1.821247 c -0.0076,1.432576 3.32e-4,1.827535 0.03684,1.850707 0.08004,0.05082 3.579746,0.03768 3.631051,-0.01363 z m 4.420944,0 c 0.0513,-0.0513 0.06443,-3.551009 0.01363,-3.63105 -0.02317,-0.0365 -0.418131,-0.04436 -1.850706,-0.03684 l -1.821249,0.0096 -0.0096,1.821247 c -0.0076,1.432576 3.33e-4,1.827535 0.03684,1.850707 0.08004,0.05082 3.579745,0.03768 3.631051,-0.01363 z M 31.800517,31.075151 c 0.0365,-0.02317 0.04436,-0.418131 0.03684,-1.850706 l -0.0096,-1.821248 -1.821248,-0.0096 c -1.432576,-0.0076 -1.827535,3.32e-4 -1.850707,0.03684 -0.05082,0.08004 -0.03769,3.579746 0.01363,3.631051 0.0513,0.0513 3.55101,0.06443 3.631051,0.01363 z m 4.420943,0 c 0.0365,-0.02317 0.04436,-0.418131 0.03684,-1.850706 l -0.0096,-1.821248 -1.821248,-0.0096 c -1.432576,-0.0076 -1.827535,3.32e-4 -1.850706,0.03684 -0.05082,0.08004 -0.03768,3.579746 0.01363,3.631051 0.0513,0.0513 3.551009,0.06443 3.63105,0.01363 z m 4.422434,-0.01363 c 0.0513,-0.0513 0.06443,-3.55101 0.01363,-3.631051 -0.02317,-0.0365 -0.418131,-0.04436 -1.850706,-0.03684 l -1.821248,0.0096 -0.0096,1.821248 c -0.0076,1.432574 3.32e-4,1.827534 0.03684,1.850705 0.08004,0.05082 3.579746,0.03768 3.631051,-0.01363 z m 4.420944,0 c 0.0513,-0.0513 0.06443,-3.55101 0.01363,-3.631051 -0.02317,-0.0365 -0.418131,-0.04436 -1.850706,-0.03684 l -1.821249,0.0096 -0.0096,1.821248 c -0.0076,1.432574 3.33e-4,1.827534 0.03684,1.850705 0.08004,0.05082 3.579745,0.03768 3.631051,-0.01363 z M 31.787942,26.662432 c 0.05205,-0.01998 0.05827,-0.216372 0.05827,-1.838119 0,-1.621746 -0.0063,-1.818145 -0.05827,-1.838117 -0.03205,-0.0123 -0.849373,-0.02236 -1.816271,-0.02236 -1.318208,0 -1.769055,0.01106 -1.802205,0.04421 -0.06369,0.06369 -0.06369,3.568857 0,3.632543 0.03315,0.03315 0.483997,0.04421 1.802205,0.04421 0.966898,0 1.78422,-0.01006 1.816271,-0.02236 z m 4.420944,0 c 0.05205,-0.01998 0.05827,-0.216372 0.05827,-1.838119 0,-1.621746 -0.0063,-1.818145 -0.05827,-1.838117 -0.03205,-0.0123 -0.849373,-0.02236 -1.816271,-0.02236 -1.318209,0 -1.769056,0.01106 -1.802206,0.04421 -0.06369,0.06369 -0.06369,3.568857 0,3.632543 0.03315,0.03315 0.483997,0.04421 1.802206,0.04421 0.966898,0 1.78422,-0.01006 1.816271,-0.02236 z m 4.435008,-0.02185 c 0.06369,-0.06369 0.06369,-3.568857 0,-3.632543 -0.03315,-0.03315 -0.483997,-0.04421 -1.802205,-0.04421 -0.966897,0 -1.784219,0.01007 -1.816271,0.02236 -0.05205,0.01998 -0.05827,0.216448 -0.05827,1.838989 0,1.418831 0.01008,1.820697 0.04605,1.83521 0.02533,0.01022 0.842651,0.01989 1.816271,0.02149 1.331023,0.0021 1.781188,-0.0081 1.814429,-0.0413 z m 4.420944,0 c 0.06369,-0.06369 0.06369,-3.568857 0,-3.632543 -0.03315,-0.03315 -0.483997,-0.04421 -1.802205,-0.04421 -0.966898,0 -1.78422,0.01007 -1.816272,0.02236 -0.05205,0.01998 -0.05827,0.216448 -0.05827,1.838989 0,1.418831 0.01008,1.820697 0.04605,1.83521 0.02533,0.01022 0.842651,0.01989 1.816271,0.02149 1.331023,0.0021 1.781188,-0.0081 1.81443,-0.0413 z M 26.983179,19.821651 c 0,-1.02797 0.02665,-1.215309 0.221336,-1.555575 0.121334,-0.212068 0.472634,-0.56427 0.658902,-0.660593 0.363177,-0.187806 0.326469,-0.184212 2.085479,-0.204227 l 1.657854,-0.01886 0.01842,-1.130242 c 0.0175,-1.073724 0.02228,-1.13544 0.09549,-1.234181 0.271318,-0.365904 0.70809,-0.355869 0.962817,0.02212 0.08231,0.12214 0.08377,0.142768 0.08377,1.184238 0,0.582963 0.01006,1.086157 0.02236,1.118208 0.02019,0.05262 0.391702,0.05827 3.827543,0.05827 3.435841,0 3.807351,-0.0057 3.827543,-0.05827 0.0123,-0.03205 0.02236,-0.535245 0.02236,-1.118208 0,-1.04147 0.0015,-1.062098 0.08377,-1.184238 0.254727,-0.377991 0.691499,-0.388026 0.962817,-0.02212 0.07322,0.09874 0.07799,0.160457 0.09549,1.234181 l 0.01842,1.130242 1.657855,0.01886 c 1.75901,0.02001 1.722301,0.01642 2.085479,0.204227 0.186268,0.09632 0.537568,0.448525 0.658901,0.660593 0.19468,0.340266 0.221337,0.527605 0.221337,1.555575 l 0,0.931711 -9.633974,0 -9.633972,0 0,-0.931711 z m 5.765647,0.560565 c 0.305367,-0.114552 0.637841,-0.446495 0.751278,-0.75008 0.223851,-0.599075 0.07547,-1.238345 -0.377407,-1.625992 -0.10315,-0.08829 -0.181056,-0.126187 -0.244245,-0.118809 l -0.09278,0.01084 -0.01842,0.688223 c -0.01671,0.624191 -0.02559,0.697886 -0.09549,0.792085 -0.27146,0.365832 -0.708109,0.355765 -0.962816,-0.0222 -0.07957,-0.118079 -0.08377,-0.158173 -0.08377,-0.800418 l 0,-0.676115 -0.112927,0 c -0.08718,0 -0.156891,0.0441 -0.305763,0.193417 -0.33592,0.33693 -0.478626,0.783365 -0.397545,1.243668 0.159163,0.903583 1.056899,1.396617 1.939891,1.065383 z m 8.658787,0.05616 c 0.852418,-0.222026 1.28639,-1.189799 0.896368,-1.998935 C 42.18094,18.184181 41.864418,17.87975 41.72206,17.87975 l -0.112927,0 0,0.676114 c 0,0.642246 -0.0042,0.68234 -0.08376,0.800419 -0.254708,0.377961 -0.691358,0.388028 -0.962817,0.0222 -0.0699,-0.0942 -0.07878,-0.167894 -0.09549,-0.792085 l -0.01842,-0.688226 -0.09278,-0.01084 c -0.06319,-0.0074 -0.141095,0.03051 -0.244244,0.11881 -0.328927,0.28155 -0.520177,0.753262 -0.47997,1.183834 0.08447,0.904552 0.898694,1.4769 1.775976,1.248397 z"
           id="path4380"
           inkscape:connector-curvature="0" />
      </g>
    </g>
  </g>
</svg>
